<svg width="64" height="64" viewBox="0 0 64 64" fill="none" xmlns="http://www.w3.org/2000/svg">
<g clip-path="url(#clip0_151_856)">
<path d="M28.4934 5.1847C28.9438 6.19326 28.4914 7.376 27.4828 7.82642C25.6522 8.64396 23.4607 9.90629 20.2987 11.7319C17.3269 13.4476 15.2116 14.671 13.6125 15.7952C12.0447 16.8973 11.093 17.8242 10.4084 18.8848C10.2051 19.1998 10.0175 19.5247 9.8464 19.8582C9.04025 21.4297 8.73066 23.2957 8.63748 26.721C8.60745 27.8252 7.688 28.696 6.58384 28.6659C5.47968 28.6359 4.60893 27.7164 4.63896 26.6123C4.73485 23.0873 5.04724 20.4499 6.28739 18.0325C6.5189 17.5812 6.77266 17.1416 7.04773 16.7155C8.10963 15.0704 9.50196 13.7953 11.3121 12.5228C13.0743 11.284 15.3449 9.97318 18.2173 8.31477L18.3959 8.21165C21.4386 6.45493 23.8092 5.08626 25.8517 4.17409C26.8603 3.72367 28.043 4.17614 28.4934 5.1847Z" fill="#276EF1"/>
<path d="M35.5073 5.1847C35.9577 4.17614 37.1404 3.72367 38.149 4.17409C40.1915 5.08625 42.562 6.45486 45.6046 8.21154L45.7834 8.3148C48.6558 9.97317 50.9264 11.2841 52.6886 12.5228C54.4988 13.7953 55.8911 15.0704 56.953 16.7155C57.228 17.1416 57.4818 17.5812 57.7133 18.0324C58.9535 20.4499 59.2659 23.0873 59.3618 26.6123C59.3918 27.7164 58.521 28.6359 57.4169 28.6659C56.3127 28.696 55.3933 27.8252 55.3632 26.721C55.2701 23.2957 54.9605 21.4297 54.1543 19.8582C53.9832 19.5247 53.7956 19.1998 53.5923 18.8848C52.9077 17.8242 51.9561 16.8973 50.3882 15.7952C48.7891 14.671 46.6738 13.4476 43.7021 11.7319C40.54 9.90629 38.3485 8.64396 36.5179 7.82642C35.5093 7.376 35.0569 6.19326 35.5073 5.1847Z" fill="#276EF1"/>
<path d="M6.28739 45.9673C5.28648 44.0162 4.8899 41.9218 4.72373 39.3332H2.66675C1.56218 39.3332 0.666748 38.4378 0.666748 37.3332C0.666748 36.2286 1.56218 35.3332 2.66675 35.3332H61.3334C62.438 35.3332 63.3334 36.2286 63.3334 37.3332C63.3334 38.4378 62.438 39.3332 61.3334 39.3332H59.277C59.1108 41.9218 58.7142 44.0162 57.7133 45.9673C57.4818 46.4186 57.2281 46.8581 56.953 47.2843C55.8911 48.9293 54.4988 50.2044 52.6886 51.4769C50.9264 52.7157 48.6559 54.0265 45.7835 55.6849L45.6047 55.7882C42.5621 57.5448 40.1915 58.9135 38.149 59.8257C37.1404 60.2761 35.9577 59.8236 35.5073 58.815C35.0569 57.8065 35.5093 56.6237 36.5179 56.1733C38.3485 55.3558 40.5401 54.0934 43.7021 52.2678C46.6738 50.5521 48.7891 49.3287 50.3882 48.2046C51.9561 47.1024 52.9077 46.1756 53.5923 45.1149C53.7956 44.8 53.9832 44.4751 54.1543 44.1415C54.7825 42.917 55.1091 41.5137 55.2668 39.3332H45.0637C43.95 44.2937 39.519 47.9999 34.2223 47.9999H29.7779C24.4812 47.9999 20.0501 44.2937 18.9365 39.3332H8.73387C8.89158 41.5137 9.21824 42.917 9.8464 44.1415C10.0175 44.4751 10.2051 44.8 10.4084 45.1149C11.093 46.1756 12.0447 47.1024 13.6125 48.2046C15.2116 49.3287 17.3269 50.5521 20.2987 52.2678C23.4606 54.0934 25.6522 55.3558 27.4828 56.1733C28.4914 56.6237 28.9438 57.8065 28.4934 58.815C28.043 59.8236 26.8603 60.2761 25.8517 59.8257C23.8093 58.9136 21.4385 57.5447 18.3962 55.7882L18.2172 55.6849C15.3448 54.0265 13.0743 52.7157 11.3121 51.4769C9.50196 50.2044 8.10963 48.9293 7.04773 47.2843C6.77265 46.8581 6.51889 46.4186 6.28739 45.9673Z" fill="#276EF1"/>
<path d="M29.7779 15.9999C23.6414 15.9999 18.6667 20.9745 18.6667 27.111C18.6667 28.3383 19.6617 29.3333 20.889 29.3333H43.1112C44.3385 29.3333 45.3334 28.3383 45.3334 27.111C45.3334 20.9745 40.3588 15.9999 34.2223 15.9999H29.7779Z" fill="#1BC8C8"/>
</g>
<defs>
<clipPath id="clip0_151_856">
<rect width="64" height="64" fill="white"/>
</clipPath>
</defs>
</svg>
