<svg width="64" height="64" viewBox="0 0 64 64" fill="none" xmlns="http://www.w3.org/2000/svg">
<path d="M35.7598 52.0026C34.6553 52.0026 33.7598 52.898 33.7598 54.0026C33.7598 55.1071 34.6553 56.0026 35.7598 56.0026H51.7598C52.8644 56.0026 53.7598 55.1071 53.7598 54.0026C53.7598 52.898 52.8644 52.0026 51.7598 52.0026H35.7598Z" fill="#276EF1"/>
<path d="M37.8774 12.2012L38.1175 12.3398C40.1925 13.5377 41.9228 14.5366 43.1898 15.5144C44.5271 16.5463 45.5885 17.7309 46.033 19.39C46.4776 21.0492 46.1507 22.6057 45.5085 24.1681C45.0628 25.2525 44.4074 26.4711 43.6177 27.8612L41.9236 26.8542L41.9017 26.8414L23.4343 16.1792L21.7072 15.1614C22.5074 13.7984 23.2285 12.6344 23.9383 11.7145C24.9703 10.3772 26.1548 9.31581 27.814 8.87124C29.4731 8.42667 31.0297 8.75362 32.592 9.39575C34.0722 10.0041 35.8025 11.0031 37.8774 12.2012Z" fill="#276EF1"/>
<path d="M19.7034 18.6234L10.4288 34.6872C9.63472 36.06 9.00683 37.1454 8.7742 38.3801C8.54157 39.6148 8.7314 40.8544 8.97148 42.422L9.03617 42.8457C9.47933 45.756 9.84461 48.1549 10.3955 49.974C10.9717 51.8764 11.8575 53.5232 13.5995 54.5289C15.3416 55.5347 17.2106 55.4784 19.1463 55.0262C20.9971 54.5938 23.2572 53.7107 25.9991 52.6393L26.3985 52.4835C27.8761 51.9076 29.0445 51.4522 29.9975 50.6334C30.9504 49.8146 31.5765 48.7281 32.3684 47.354L41.621 31.3276L39.8907 30.2992L21.411 19.6299L19.7034 18.6234Z" fill="#276EF1"/>
<path d="M35.7599 52.0027C34.6553 52.0027 33.7599 52.8981 33.7599 54.0027C33.7599 55.1073 34.6553 56.0027 35.7599 56.0027H51.7599C52.8645 56.0027 53.7599 55.1073 53.7599 54.0027C53.7599 52.8981 52.8645 52.0027 51.7599 52.0027H35.7599Z" fill="#1BC8C8"/>
</svg>
