<svg width="64" height="64" viewBox="0 0 64 64" fill="none" xmlns="http://www.w3.org/2000/svg">
<path d="M27.7803 23.5377C28.4792 23.3504 29.3912 23.3333 31.9999 23.3333C34.6086 23.3333 35.5206 23.3504 36.2195 23.5377C38.2901 24.0925 39.9073 25.7098 40.4621 27.7803C40.6494 28.4792 40.6666 29.3912 40.6666 31.9999C40.6666 34.6086 40.6494 35.5206 40.4621 36.2195C39.9073 38.2901 38.29 39.9073 36.2195 40.4621C35.5206 40.6494 34.6086 40.6666 31.9999 40.6666C29.3912 40.6666 28.4792 40.6494 27.7803 40.4621C25.7098 39.9073 24.0925 38.2901 23.5377 36.2195C23.3504 35.5206 23.3333 34.6086 23.3333 31.9999C23.3333 29.3912 23.3504 28.4792 23.5377 27.7803C24.0925 25.7098 25.7098 24.0925 27.7803 23.5377Z" fill="#276EF1"/>
<path fill-rule="evenodd" clip-rule="evenodd" d="M31.2395 2.74811C31.7461 2.72296 32.2536 2.72296 32.7602 2.74811C34.7158 2.84521 36.5163 3.41345 38.5233 4.34485C40.4773 5.25158 42.7478 6.56246 45.6202 8.22089L45.7828 8.31477C48.6553 9.97317 50.9259 11.2841 52.6881 12.5229C54.4982 13.7954 55.8906 15.0705 56.9525 16.7155C57.2275 17.1417 57.4813 17.5812 57.7128 18.0325C58.6065 19.7747 59.0147 21.618 59.2116 23.8219C59.4033 25.9674 59.4033 28.5891 59.4033 31.9058V32.0938C59.4033 35.4106 59.4033 38.0324 59.2116 40.1779C59.0147 42.3818 58.6065 44.2252 57.7128 45.9673C57.4813 46.4186 57.2275 46.8581 56.9525 47.2843C55.8906 48.9294 54.4982 50.2045 52.6881 51.4769C50.9259 52.7157 48.6554 54.0266 45.783 55.6849L45.6203 55.7789C42.7478 57.4373 40.4773 58.7482 38.5233 59.655C36.5163 60.5864 34.7158 61.1546 32.7602 61.2517C32.2536 61.2769 31.7461 61.2769 31.2395 61.2517C29.2839 61.1546 27.4834 60.5864 25.4764 59.655C23.5224 58.7482 21.2519 57.4373 18.3794 55.7789L18.2166 55.6849C15.3444 54.0267 13.0737 52.7157 11.3116 51.4769C9.50145 50.2045 8.10912 48.9294 7.04722 47.2843C6.77215 46.8581 6.51839 46.4186 6.28688 45.9673C5.39315 44.2252 4.98504 42.3818 4.78812 40.1779C4.59641 38.0324 4.59642 35.4107 4.59644 32.0938V31.906C4.59642 28.5892 4.59641 25.9674 4.78812 23.8219C4.98504 21.618 5.39315 19.7747 6.28688 18.0325C6.51839 17.5812 6.77215 17.1417 7.04722 16.7155C8.10912 15.0705 9.50145 13.7954 11.3116 12.5229C13.0738 11.2841 15.3443 9.97322 18.2168 8.31482L18.3795 8.22089C21.2519 6.56246 23.5224 5.25158 25.4764 4.34485C27.4834 3.41345 29.2839 2.84521 31.2395 2.74811ZM31.6911 19.3332C29.5099 19.3325 28.0215 19.332 26.7451 19.674C23.2941 20.5987 20.5987 23.2941 19.674 26.7451C19.332 28.0215 19.3325 29.5099 19.3332 31.6911V32.3087C19.3325 34.4899 19.332 35.9783 19.674 37.2548C20.5987 40.7057 23.2941 43.4012 26.7451 44.3258C28.0215 44.6679 29.5099 44.6674 31.6911 44.6667H32.3087C34.4899 44.6674 35.9783 44.6679 37.2548 44.3258C40.7057 43.4012 43.4012 40.7057 44.3258 37.2548C44.6679 35.9783 44.6674 34.4899 44.6667 32.3087V31.6911C44.6674 29.5099 44.6679 28.0215 44.3258 26.7451C43.4012 23.2941 40.7057 20.5987 37.2548 19.674C35.9783 19.332 34.4899 19.3325 32.3087 19.3332H31.6911Z" fill="#276EF1"/>
<path d="M27.7803 23.5377C28.4792 23.3504 29.3912 23.3333 31.9999 23.3333C34.6086 23.3333 35.5206 23.3504 36.2195 23.5377C38.2901 24.0925 39.9073 25.7098 40.4621 27.7803C40.6494 28.4792 40.6666 29.3912 40.6666 31.9999C40.6666 34.6086 40.6494 35.5206 40.4621 36.2195C39.9073 38.2901 38.29 39.9073 36.2195 40.4621C35.5206 40.6494 34.6086 40.6666 31.9999 40.6666C29.3912 40.6666 28.4792 40.6494 27.7803 40.4621C25.7098 39.9073 24.0925 38.2901 23.5377 36.2195C23.3504 35.5206 23.3333 34.6086 23.3333 31.9999C23.3333 29.3912 23.3504 28.4792 23.5377 27.7803C24.0925 25.7098 25.7098 24.0925 27.7803 23.5377Z" fill="#1BC8C8"/>
</svg>
