<svg width="64" height="64" viewBox="0 0 64 64" fill="none" xmlns="http://www.w3.org/2000/svg">
<g clip-path="url(#clip0_151_865)">
<path d="M4.60713 4.84812C4.33921 3.77654 3.25332 3.12504 2.18174 3.39296C1.11016 3.66089 0.458659 4.74677 0.726581 5.81835L3.53151 17.037L6.14165 27.9276C7.25151 32.5584 8.1251 36.2035 9.16175 39.0352C10.2251 41.9399 11.5291 44.1949 13.6213 45.9241C13.8019 46.0734 13.9858 46.2184 14.173 46.3592C16.3423 47.9908 18.8391 48.7333 21.9116 49.0904C24.9069 49.4385 28.6551 49.4385 33.4169 49.4385H34.9998C39.1198 49.4385 42.3631 49.4385 44.9759 49.1743C47.6522 48.9037 49.8542 48.342 51.8359 47.1013C52.7759 46.5128 53.6492 45.824 54.4406 45.0471C56.003 43.5133 57.0326 41.6507 57.8855 39.3332H45.3338C44.2292 39.3332 43.3338 38.4378 43.3338 37.3332C43.3338 36.2287 44.2292 35.3332 45.3338 35.3332H59.1201C59.446 34.1212 59.7759 32.7914 60.129 31.3332L37.3338 31.3332C36.2292 31.3332 35.3338 30.4378 35.3338 29.3332C35.3338 28.2287 36.2292 27.3332 37.3338 27.3332L61.0868 27.3332C61.4828 25.6444 61.7934 24.1958 61.9339 22.9667C62.1252 21.2926 62.0471 19.6985 61.2115 18.2431C60.854 17.6206 60.4071 17.0539 59.8851 16.5613C58.6645 15.4094 57.1326 14.9619 55.46 14.7578C53.8484 14.5612 51.8009 14.5612 49.3166 14.5613L7.03566 14.5613L4.60713 4.84812Z" fill="#276EF1"/>
<path d="M25.1233 58.6666C26.6735 58.6666 27.9303 57.4098 27.9303 55.8595C27.9303 54.3093 26.6735 53.0525 25.1233 53.0525C23.573 53.0525 22.3162 54.3093 22.3162 55.8595C22.3162 57.4098 23.573 58.6666 25.1233 58.6666Z" fill="#1BC8C8"/>
<path d="M41.9654 58.6666C43.5156 58.6666 44.7724 57.4098 44.7724 55.8595C44.7724 54.3093 43.5156 53.0525 41.9654 53.0525C40.4151 53.0525 39.1584 54.3093 39.1584 55.8595C39.1584 57.4098 40.4151 58.6666 41.9654 58.6666Z" fill="#1BC8C8"/>
</g>
<defs>
<clipPath id="clip0_151_865">
<rect width="64" height="64" fill="white"/>
</clipPath>
</defs>
</svg>
