<svg width="26" height="26" viewBox="0 0 26 26" fill="none" xmlns="http://www.w3.org/2000/svg">
<path d="M18.5001 0.5H7.50012C5.64361 0.5 3.86313 1.2375 2.55037 2.55025C1.23762 3.86301 0.500122 5.64348 0.500122 7.5V18.5C0.500122 20.3565 1.23762 22.137 2.55037 23.4497C3.86313 24.7625 5.64361 25.5 7.50012 25.5H18.5001C20.3566 25.5 22.1371 24.7625 23.4499 23.4497C24.7626 22.137 25.5001 20.3565 25.5001 18.5V7.5C25.5001 5.64348 24.7626 3.86301 23.4499 2.55025C22.1371 1.2375 20.3566 0.5 18.5001 0.5ZM13.0001 19C11.8134 19 10.6534 18.6481 9.6667 17.9888C8.68001 17.3295 7.91097 16.3925 7.45685 15.2961C7.00272 14.1997 6.8839 12.9933 7.11541 11.8295C7.34692 10.6656 7.91837 9.59647 8.75748 8.75736C9.5966 7.91824 10.6657 7.3468 11.8296 7.11529C12.9935 6.88378 14.1999 7.0026 15.2962 7.45672C16.3926 7.91085 17.3297 8.67988 17.9889 9.66658C18.6482 10.6533 19.0001 11.8133 19.0001 13C19.0001 14.5913 18.368 16.1174 17.2428 17.2426C16.1175 18.3679 14.5914 19 13.0001 19ZM19.5001 8C19.2034 8 18.9134 7.91203 18.6668 7.7472C18.4201 7.58238 18.2278 7.34811 18.1143 7.07403C18.0008 6.79994 17.9711 6.49834 18.0289 6.20736C18.0868 5.91639 18.2297 5.64912 18.4395 5.43934C18.6492 5.22956 18.9165 5.0867 19.2075 5.02882C19.4985 4.97094 19.8001 5.00065 20.0741 5.11418C20.3482 5.22771 20.5825 5.41997 20.7473 5.66665C20.9121 5.91332 21.0001 6.20333 21.0001 6.5C21.0001 6.89782 20.8421 7.27936 20.5608 7.56066C20.2795 7.84196 19.8979 8 19.5001 8Z" fill="#8B8B8B"/>
</svg>
