<svg width="28" height="26" viewBox="0 0 28 26" fill="none" xmlns="http://www.w3.org/2000/svg">
<path d="M1.208 8.61558H6.83368V25.5451H1.208V8.61558ZM4.0585 0.454834C2.13306 0.454834 0.875122 1.7189 0.875122 3.37802C0.875122 5.00302 2.09625 6.30383 3.98487 6.30383H4.02075C5.983 6.30383 7.205 5.00296 7.205 3.37802C7.16818 1.7189 5.98306 0.454834 4.0585 0.454834ZM20.6463 8.2179C17.6601 8.2179 16.3223 9.8604 15.576 11.0123V8.61558H9.94862C10.0231 10.2038 9.94862 25.5451 9.94862 25.5451H15.576V16.0905C15.576 15.5841 15.6128 15.0796 15.7609 14.7168C16.1683 13.706 17.0942 12.6591 18.6472 12.6591C20.6849 12.6591 21.4986 14.2123 21.4986 16.4871V25.545H27.1251V15.8373C27.1251 10.6374 24.35 8.2179 20.6463 8.2179Z" fill="#8B8B8B"/>
</svg>
