<svg width="64" height="64" viewBox="0 0 64 64" fill="none" xmlns="http://www.w3.org/2000/svg">
<path d="M24.9202 20.8388L30.8683 11.1731C31.5719 10.0297 32.8183 9.33325 34.1608 9.33325C36.5303 9.33325 38.3422 11.4453 37.9819 13.7872L37.3338 17.9999C36.6327 22.5569 40.1585 26.6666 44.7691 26.6666H46.6085C53.3738 26.6666 57.774 33.7862 54.7484 39.8374L51.6857 45.9628C49.4272 50.4799 44.8103 53.3333 39.76 53.3333H32.0005C28.4061 53.3333 25.227 51.5554 23.2945 48.8311C23.3205 48.5576 23.3338 48.2803 23.3338 47.9999V26.6666C23.3338 25.7839 23.2019 24.9321 22.9566 24.1297C23.4292 23.2616 24.0584 22.2391 24.9202 20.8388Z" fill="#276EF1"/>
<path d="M19.3338 47.9999C19.3338 50.5772 17.2445 52.6666 14.6672 52.6666C12.0898 52.6666 10.0005 50.5772 10.0005 47.9999V26.6666C10.0005 24.0893 12.0898 21.9999 14.6672 21.9999C17.2445 21.9999 19.3338 24.0893 19.3338 26.6666V47.9999Z" fill="#1BC8C8"/>
</svg>
