<svg width="19" height="22" viewBox="0 0 19 22" fill="none" xmlns="http://www.w3.org/2000/svg">
<path d="M18.6668 11.013C18.6668 11.687 18.4547 12.3635 18.0304 12.9053C17.9509 13.0115 17.5797 13.4496 17.288 13.7348L17.1289 13.8903C14.9016 16.2517 9.35997 19.803 6.54937 20.9409C6.54937 20.9668 4.87891 21.6434 4.08346 21.6667H3.97739C2.7577 21.6667 1.61755 20.9953 1.03421 19.9066C0.716031 19.3079 0.424365 17.5711 0.397849 17.5478C0.159213 15.9899 0.00012207 13.6051 0.00012207 10.9871C0.00012207 8.242 0.159213 5.75095 0.45088 4.22159C0.45088 4.19567 0.742546 2.79591 0.928152 2.32932C1.21982 1.65796 1.75012 1.0851 2.413 0.722195C2.9433 0.465573 3.50012 0.333374 4.08346 0.333374C4.6933 0.361888 5.83346 0.748117 6.28421 0.929567C9.25391 2.07011 14.9282 5.80279 17.1024 8.08388C17.4736 8.44678 17.8713 8.89004 17.9774 8.99113C18.4282 9.5614 18.6668 10.2613 18.6668 11.013Z" fill="white"/>
</svg>
