<svg width="22" height="24" viewBox="0 0 22 24" fill="none" xmlns="http://www.w3.org/2000/svg">
<path d="M11.7292 0H15.9866C16.0323 0.17486 16.0678 0.351937 16.093 0.530442C16.2228 1.92268 16.9001 3.21935 17.9925 4.16699C19.0849 5.11463 20.5139 5.6451 22.0001 5.65471V9.42786C21.801 9.48873 21.592 9.51584 21.3828 9.50792C20.3925 9.40507 19.411 9.23786 18.4452 9.00751C17.6117 8.70589 16.801 8.35145 16.0185 7.94662V8.44704C16.0185 10.4487 16.0185 12.5104 16.0185 14.5421C16.0292 15.369 15.9722 16.1955 15.8482 17.0142C15.6615 18.3807 15.1057 19.6796 14.2337 20.7868C13.3617 21.8941 12.2027 22.7729 10.8671 23.3394C10.0822 23.6109 9.27852 23.8316 8.46166 24H6.98222C6.92024 23.9723 6.85621 23.9489 6.79064 23.9299C5.29116 23.7506 3.88262 23.1549 2.74506 22.219C1.6075 21.283 0.792614 20.0493 0.404573 18.6756C0.225919 18.0777 0.0907887 17.4692 0.00012207 16.854V15.6831C0.1172 15.1326 0.202348 14.5822 0.372643 14.0417C0.85233 12.5986 1.7791 11.3228 3.03432 10.3779C4.28955 9.4329 5.81611 8.86166 7.4186 8.73728C7.89756 8.66722 8.37651 8.64721 8.8874 8.60717C8.8874 9.90826 8.8874 11.1093 8.8874 12.3203C8.8874 12.6105 8.72775 12.6505 8.4723 12.7206C7.65625 12.8965 6.85567 13.1307 6.07753 13.4212C5.47822 13.6335 4.9633 14.0148 4.60323 14.5128C4.24315 15.0109 4.05549 15.6014 4.06592 16.2035C4.02078 16.8863 4.19052 17.5666 4.55394 18.1593C4.91736 18.752 5.45838 19.2309 6.10946 19.5363C6.70483 19.8825 7.39638 20.054 8.09588 20.0291C8.79539 20.0041 9.47113 19.7838 10.0369 19.3962C10.4605 19.111 10.8158 18.7454 11.0798 18.323C11.3438 17.9006 11.5106 17.4309 11.5695 16.9441C11.6968 15.948 11.7501 14.9447 11.7292 13.9416C11.7292 9.49792 11.7292 5.05088 11.7292 0.600501C11.7611 0.390326 11.7398 0.200167 11.7292 0Z" fill="#8B8B8B"/>
</svg>
