<svg width="64" height="64" viewBox="0 0 64 64" fill="none" xmlns="http://www.w3.org/2000/svg">
<rect x="28.0002" y="15" width="7" height="33" fill="#1BC8C8"/>
<path fill-rule="evenodd" clip-rule="evenodd" d="M30.9209 5.6001C35.8183 5.60008 39.6572 5.60006 42.7029 5.93004C45.811 6.26678 48.3294 6.9663 50.4795 8.5285C51.7813 9.47426 52.926 10.619 53.8718 11.9207C55.434 14.0709 56.1335 16.5893 56.4702 19.6974C56.8002 22.743 56.8002 26.5821 56.8002 31.4794V31.721C56.8002 36.6183 56.8002 40.4572 56.4702 43.5028C56.1335 46.6109 55.434 49.1293 53.8718 51.2795C52.926 52.5812 51.7813 53.7259 50.4795 54.6717C48.3293 56.2339 45.811 56.9334 42.7029 57.2702C39.6573 57.6001 35.8182 57.6001 30.9209 57.6001H30.6792C25.7819 57.6001 21.9431 57.6001 18.8974 57.2702C15.7893 56.9334 13.271 56.2339 11.1208 54.6717C9.81908 53.7259 8.67433 52.5812 7.72858 51.2795C6.16637 49.1293 5.46685 46.6109 5.13011 43.5028C4.80013 40.4571 4.80015 36.6182 4.80017 31.7208V31.4794C4.80015 26.582 4.80013 22.7431 5.13011 19.6974C5.46685 16.5893 6.16637 14.0709 7.72858 11.9207C8.67433 10.619 9.81908 9.47426 11.1208 8.5285C13.271 6.9663 15.7893 6.26678 18.8974 5.93004C21.9431 5.60006 25.7821 5.60008 30.6795 5.6001H30.9209ZM32.8002 18.2668C32.8002 17.1622 31.9047 16.2668 30.8002 16.2668C29.6956 16.2668 28.8002 17.1622 28.8002 18.2668V44.9334C28.8002 46.038 29.6956 46.9334 30.8002 46.9334C31.9047 46.9334 32.8002 46.038 32.8002 44.9334V18.2668ZM43.4668 28.9334C43.4668 27.8289 42.5714 26.9334 41.4668 26.9334C40.3623 26.9334 39.4668 27.8289 39.4668 28.9334V44.9334C39.4668 46.038 40.3623 46.9334 41.4668 46.9334C42.5714 46.9334 43.4668 46.038 43.4668 44.9334V28.9334ZM22.1335 34.2668C22.1335 33.1622 21.2381 32.2668 20.1335 32.2668C19.0289 32.2668 18.1335 33.1622 18.1335 34.2668V44.9334C18.1335 46.038 19.0289 46.9334 20.1335 46.9334C21.2381 46.9334 22.1335 46.038 22.1335 44.9334V34.2668Z" fill="#276EF1"/>
</svg>
