<svg width="28" height="24" viewBox="0 0 28 24" fill="none" xmlns="http://www.w3.org/2000/svg">
<path d="M27.8236 3.50339C26.8014 3.95777 25.7013 4.26426 24.547 4.40142C25.7256 3.69586 26.6293 2.57827 27.0554 1.24505C25.9531 1.89924 24.7327 2.37394 23.4328 2.63019C22.3926 1.52163 20.9098 0.828491 19.2689 0.828491C16.1188 0.828491 13.5647 3.3826 13.5647 6.53332C13.5647 6.9798 13.6149 7.41498 13.7126 7.83324C8.97122 7.59504 4.76725 5.32428 1.9535 1.87271C1.46243 2.71486 1.18134 3.69474 1.18134 4.74121C1.18134 6.72015 2.18831 8.46654 3.71908 9.48931C2.78436 9.4594 1.90439 9.20258 1.13505 8.77529C1.13449 8.799 1.13449 8.82327 1.13449 8.84754C1.13449 11.6111 3.10101 13.9162 5.711 14.4412C5.23235 14.571 4.7283 14.641 4.20789 14.641C3.83987 14.641 3.48258 14.6054 3.13431 14.5383C3.86075 16.8045 5.96726 18.4544 8.46323 18.5001C6.51082 20.0303 4.05153 20.9424 1.37833 20.9424C0.918308 20.9424 0.463931 20.9153 0.0174561 20.8623C2.54278 22.4817 5.5411 23.4254 8.76238 23.4254C19.256 23.4254 24.9935 14.733 24.9935 7.19429C24.9935 6.94706 24.9884 6.7004 24.9777 6.45543C26.0919 5.65279 27.0594 4.64752 27.8236 3.50339Z" fill="#8B8B8B"/>
</svg>
