<svg width="64" height="64" viewBox="0 0 64 64" fill="none" xmlns="http://www.w3.org/2000/svg">
<g clip-path="url(#clip0_151_862)">
<path d="M20.6216 23.3384C20.8309 23.3149 21.2825 23.355 22.3563 23.8829C23.4163 24.404 24.7718 25.2357 26.7413 26.4478C28.7099 27.6593 30.0646 28.4955 31.02 29.215C31.9758 29.9348 32.2784 30.3582 32.3966 30.6411C32.7568 31.5036 32.7568 32.4966 32.3966 33.359C32.2784 33.642 31.9758 34.0653 31.02 34.7851C30.0646 35.5047 28.7099 36.3409 26.7413 37.5524C24.7718 38.7645 23.4163 39.5962 22.3563 40.1172C21.2825 40.6451 20.8309 40.6853 20.6216 40.6618C19.8442 40.5747 19.0969 40.1356 18.5909 39.3932C18.42 39.1425 18.2195 38.6301 18.11 37.3579C18.0019 36.1015 18.0001 34.4181 18.0001 32.0001C18.0001 29.582 18.0019 27.8986 18.11 26.6422C18.2195 25.3701 18.42 24.8577 18.5909 24.607C19.0969 23.8646 19.8442 23.4255 20.6216 23.3384Z" fill="#276EF1"/>
<path fill-rule="evenodd" clip-rule="evenodd" d="M24.0896 8.66675H23.9106C20.2527 8.66674 17.3848 8.66673 15.0799 8.85505C12.7329 9.04681 10.7939 9.44376 9.03889 10.338C6.15374 11.808 3.80804 14.1537 2.33798 17.0389C1.44376 18.7939 1.04681 20.7329 0.855047 23.0799C0.666727 25.3848 0.666736 28.2527 0.666748 31.9106V32.0896C0.666736 35.7475 0.666727 38.6153 0.855047 40.9203C1.04681 43.2673 1.44376 45.2063 2.33798 46.9613C3.80804 49.8464 6.15374 52.1921 9.03889 53.6622C10.7939 54.5564 12.7329 54.9534 15.0799 55.1451C17.3846 55.3334 20.2522 55.3334 23.9096 55.3334H24.0896C27.7471 55.3334 30.6155 55.3334 32.9203 55.1451C35.2673 54.9534 37.2063 54.5564 38.9613 53.6622C41.8464 52.1921 44.1921 49.8464 45.6622 46.9613C45.7956 46.6994 45.918 46.4335 46.0303 46.1625C49.1415 47.5217 51.6892 48.6251 53.7573 49.1862C55.957 49.7829 58.0998 49.9058 60.0154 48.6524C61.9309 47.399 62.6762 45.3863 63.0102 43.1316C63.3336 40.9485 63.3335 38.0687 63.3334 34.5339V29.4663C63.3335 25.9314 63.3336 23.0517 63.0102 20.8685C62.6762 18.6139 61.9309 16.6012 60.0154 15.3477C58.0998 14.0943 55.957 14.2173 53.7573 14.814C51.6892 15.3751 49.1415 16.4784 46.0303 17.8377C45.918 17.5667 45.7956 17.3007 45.6622 17.0389C44.1921 14.1537 41.8464 11.808 38.9613 10.338C37.2063 9.44376 35.2673 9.04681 32.9203 8.85505C30.6153 8.66673 27.7475 8.66674 24.0896 8.66675ZM28.7487 22.9864C26.89 21.8424 25.3723 20.9084 24.121 20.2932C22.8636 19.6751 21.5542 19.2088 20.1762 19.3632C18.1845 19.5864 16.4162 20.6954 15.2856 22.3542C14.5183 23.4799 14.2498 24.8462 14.1247 26.2992C14 27.7479 14.0001 29.6046 14.0001 31.9043V32.0959C14.0001 34.3956 14 36.2523 14.1247 37.7009C14.2498 39.1539 14.5183 40.5203 15.2856 41.646C16.4162 43.3047 18.1845 44.4138 20.1762 44.6369C21.5542 44.7913 22.8636 44.3251 24.121 43.7069C25.3723 43.0918 26.89 42.1578 28.7486 41.0138L28.9248 40.9054C30.7853 39.7604 32.3025 38.8267 33.4264 37.9804C34.5674 37.1211 35.5565 36.172 36.0876 34.9007C36.8598 33.0517 36.8598 30.9484 36.0876 29.0995C35.5565 27.8281 34.5674 26.8791 33.4264 26.0198C32.3025 25.1734 30.7853 24.2397 28.9248 23.0947L28.7487 22.9864Z" fill="#276EF1"/>
<path d="M20.6216 23.3386C20.8309 23.3151 21.2825 23.3552 22.3563 23.8831C23.4163 24.4042 24.7718 25.2359 26.7413 26.448C28.7099 27.6595 30.0646 28.4957 31.02 29.2152C31.9758 29.935 32.2784 30.3584 32.3966 30.6413C32.7568 31.5038 32.7568 32.4968 32.3966 33.3592C32.2784 33.6422 31.9758 34.0655 31.02 34.7853C30.0646 35.5049 28.7099 36.3411 26.7413 37.5526C24.7718 38.7647 23.4163 39.5963 22.3563 40.1174C21.2825 40.6453 20.8309 40.6854 20.6216 40.662C19.8442 40.5749 19.097 40.1358 18.5909 39.3934C18.42 39.1427 18.2195 38.6303 18.11 37.3581C18.0019 36.1017 18.0001 34.4183 18.0001 32.0003C18.0001 29.5822 18.0019 27.8988 18.11 26.6424C18.2195 25.3703 18.42 24.8579 18.5909 24.6072C19.097 23.8647 19.8442 23.4257 20.6216 23.3386Z" fill="#1BC8C8"/>
</g>
<defs>
<clipPath id="clip0_151_862">
<rect width="64" height="64" fill="white"/>
</clipPath>
</defs>
</svg>
