<svg width="32" height="24" viewBox="0 0 32 24" fill="none" xmlns="http://www.w3.org/2000/svg">
<path d="M31.3316 4.29786C30.9636 2.92099 29.8794 1.8368 28.5025 1.4688C26.0067 0.800049 16.0001 0.800049 16.0001 0.800049C16.0001 0.800049 5.99343 0.800049 3.49768 1.4688C2.12106 1.8368 1.03662 2.92099 0.668685 4.29786C0.00012207 6.79336 0.00012207 12.0002 0.00012207 12.0002C0.00012207 12.0002 0.00012207 17.207 0.668685 19.7022C1.03662 21.0791 2.12106 22.1636 3.49768 22.5315C5.99343 23.2 16.0001 23.2001 16.0001 23.2001C16.0001 23.2001 26.0067 23.2 28.5025 22.5315C29.8794 22.1636 30.9636 21.0791 31.3316 19.7022C32.0001 17.207 32.0001 12.0002 32.0001 12.0002C32.0001 12.0002 32.0001 6.79336 31.3316 4.29786ZM12.7999 16.8003V7.20011L21.1136 12.0002L12.7999 16.8003Z" fill="#8B8B8B"/>
</svg>
